<?xml version="1.0" standalone="no"?>
<!DOCTYPE svg PUBLIC "-//W3C//DTD SVG 20010904//EN"
 "http://www.w3.org/TR/2001/REC-SVG-20010904/DTD/svg10.dtd">
<svg version="1.0" xmlns="http://www.w3.org/2000/svg"
 width="715.000000pt" height="571.000000pt" viewBox="0 0 715.000000 571.000000"
 preserveAspectRatio="xMidYMid meet">

<g transform="translate(0.000000,571.000000) scale(0.100000,-0.100000)"
fill="#000000" stroke="none">
<path d="M0 2855 l0 -2855 3575 0 3575 0 0 2855 0 2855 -3575 0 -3575 0 0
-2855z m4191 1392 c79 -53 79 -151 0 -204 -19 -13 -46 -23 -60 -23 -21 1 -76
-51 -287 -267 l-261 -267 -206 207 c-114 114 -218 212 -232 217 -51 20 -95
-18 -95 -81 0 -29 22 -55 210 -242 116 -115 210 -212 210 -216 0 -3 -67 -74
-150 -156 -109 -109 -150 -156 -150 -173 0 -37 -28 -86 -59 -105 -34 -20 -96
-22 -129 -3 -54 29 -78 109 -49 166 16 32 73 70 106 70 19 0 50 25 123 97 54
54 98 102 98 107 0 5 -73 82 -162 172 -169 169 -197 209 -198 279 -1 166 145
273 301 220 36 -12 77 -48 204 -175 88 -88 167 -160 176 -160 9 0 107 93 218
208 164 169 201 212 201 235 0 96 109 149 191 94z m17 -411 c33 -31 37 -39 37
-85 0 -43 -5 -55 -33 -84 -18 -19 -50 -39 -71 -46 -27 -8 -67 -40 -142 -116
-57 -58 -105 -110 -107 -114 -2 -5 76 -87 172 -182 151 -151 176 -180 186
-219 27 -102 -9 -202 -91 -257 -56 -37 -158 -44 -213 -16 -21 11 -114 95 -207
189 l-170 169 -72 -75 c-267 -278 -347 -370 -347 -395 0 -34 -24 -80 -52 -99
-13 -9 -43 -16 -70 -16 -82 0 -140 71 -123 150 10 46 56 88 104 96 37 6 55 21
193 168 84 88 183 193 219 231 37 39 83 88 102 110 20 22 38 38 41 35 3 -3
101 -101 219 -217 209 -209 214 -213 254 -213 49 0 73 25 73 78 0 30 -20 53
-210 241 -115 115 -210 214 -210 221 0 7 66 80 148 162 131 133 148 154 158
196 21 91 54 121 132 122 35 0 49 -6 80 -34z m-1791 -1651 c12 -22 28 -40 35
-40 7 0 23 19 36 43 21 37 28 42 58 42 19 0 34 -4 34 -9 0 -5 -16 -37 -35 -71
-19 -34 -35 -65 -35 -69 0 -3 18 -37 40 -75 22 -37 40 -72 40 -77 0 -5 -16 -9
-35 -9 -32 0 -38 5 -66 55 -17 30 -35 52 -40 49 -5 -3 -21 -28 -34 -55 -24
-47 -27 -49 -66 -49 -22 0 -38 3 -36 8 2 4 23 40 46 79 l42 73 -20 37 c-11 21
-29 51 -40 67 -24 36 -19 48 22 44 25 -2 36 -11 54 -43z m531 18 l-3 -28 -83
0 c-89 0 -107 -10 -92 -49 6 -18 17 -21 69 -24 57 -3 61 -4 61 -27 0 -23 -4
-25 -42 -25 -74 0 -89 -8 -86 -44 l3 -31 88 -3 c85 -3 87 -3 87 -27 l0 -25
-125 0 -125 0 0 148 c0 82 3 152 7 155 3 4 60 7 125 7 l119 0 -3 -27z m337 13
c50 -21 75 -68 75 -139 0 -82 -22 -125 -78 -150 -83 -36 -184 -10 -220 57 -23
43 -22 144 1 179 41 63 141 86 222 53z m245 -116 l5 -125 88 -3 c85 -3 87 -3
87 -27 l0 -25 -125 0 -125 0 0 156 0 155 33 -3 32 -3 5 -125z m517 113 c50
-23 73 -66 73 -133 0 -64 -22 -114 -63 -144 -22 -16 -43 -21 -96 -21 -58 0
-72 4 -104 28 -81 62 -72 227 15 270 43 21 131 21 175 0z m317 -85 c34 -54 64
-98 68 -98 4 0 9 44 10 98 l3 97 33 3 32 3 0 -155 0 -156 -44 0 -43 0 -60 97
c-32 53 -64 98 -71 101 -9 3 -12 -23 -12 -97 l0 -101 -30 0 c-17 0 -30 5 -31
13 -2 62 3 282 7 289 3 5 22 8 42 6 33 -3 39 -9 96 -100z m491 92 c3 -6 3 -19
0 -30 -6 -18 -15 -20 -90 -20 -83 0 -85 -1 -91 -26 -9 -35 2 -42 71 -46 54 -3
60 -5 63 -25 3 -22 0 -23 -62 -23 -56 0 -66 -3 -71 -20 -3 -11 -4 -29 0 -40 5
-17 17 -20 93 -22 79 -3 87 -5 87 -23 0 -19 -8 -20 -122 -23 l-123 -3 0 156 0
155 119 0 c70 0 122 -4 126 -10z m-2887 -597 c2 -9 -7 -13 -26 -13 -27 0 -31
-4 -37 -40 -4 -21 -6 -54 -5 -72 3 -52 1 -68 -10 -68 -5 0 -11 39 -12 87 -3
79 -5 88 -23 91 -74 12 -40 32 49 29 37 -1 61 -7 64 -14z m300 -78 c-3 -66 -7
-80 -27 -96 -30 -24 -92 -25 -121 -1 -20 16 -24 31 -28 100 -4 71 -2 82 12 82
13 0 16 -12 16 -69 0 -80 13 -101 64 -101 47 0 56 15 56 95 0 40 3 75 7 79 17
16 25 -18 21 -89z m164 81 c7 -7 31 -39 53 -70 22 -31 43 -56 47 -56 4 0 8 30
10 68 5 104 23 76 23 -35 0 -127 -12 -131 -86 -28 l-54 76 -5 -72 c-3 -45 -10
-74 -17 -77 -10 -3 -13 21 -13 96 0 113 8 133 42 98z m406 8 c41 -11 23 -25
-25 -19 -65 9 -84 -7 -90 -72 -7 -63 11 -83 72 -83 50 0 60 10 57 57 -2 27 1
33 18 33 23 0 26 -20 9 -69 -14 -39 -35 -51 -89 -51 -57 0 -100 42 -100 97 0
86 61 130 148 107z m350 -18 c12 -12 17 -34 17 -81 0 -80 -14 -97 -87 -103
-46 -3 -56 -1 -80 22 -24 21 -28 33 -28 79 0 55 10 76 45 96 28 16 113 8 133
-13z m265 15 c44 -17 57 -39 57 -96 0 -43 -5 -59 -22 -74 -24 -23 -68 -34
-119 -29 l-34 3 -3 97 c-2 86 -1 97 15 101 32 8 81 7 106 -2z m207 -97 c0 -80
-3 -105 -12 -102 -9 3 -14 33 -16 93 -3 92 0 115 18 115 6 0 10 -40 10 -106z
m268 89 c3 -10 -13 -13 -57 -13 l-61 0 0 -30 c0 -29 2 -30 45 -30 33 0 45 -4
45 -14 0 -10 -14 -16 -42 -18 -33 -2 -44 -8 -46 -22 -5 -26 15 -36 71 -36 35
0 47 -4 45 -12 -3 -9 -27 -13 -74 -13 l-69 0 -3 89 c-2 49 0 96 2 103 7 18
137 14 144 -4z m157 9 c6 -4 33 -36 60 -72 l50 -65 9 73 c12 102 31 89 33 -25
2 -137 -17 -146 -89 -43 -66 95 -68 95 -68 6 0 -58 -3 -77 -12 -74 -9 3 -14
33 -16 93 -4 110 2 129 33 107z m412 -18 c32 -44 0 -103 -62 -113 -57 -9 -57
-31 -1 -32 69 -2 71 -3 71 -19 0 -12 -15 -15 -75 -15 l-75 0 2 35 c2 43 32 70
79 70 38 0 48 11 40 46 -5 19 -13 24 -38 24 -17 0 -40 -7 -50 -17 -10 -9 -21
-14 -24 -10 -10 10 6 46 24 51 32 9 96 -3 109 -20z m249 20 c29 -8 44 -44 44
-109 0 -46 -4 -56 -26 -74 -36 -28 -79 -27 -109 4 -21 20 -25 34 -25 80 0 83
42 119 116 99z m306 -12 c35 -35 27 -161 -12 -182 -26 -14 -73 -13 -94 3 -41
30 -40 161 2 187 19 12 89 7 104 -8z m286 2 c19 -13 22 -24 22 -87 0 -40 -4
-78 -9 -86 -11 -18 -93 -26 -120 -12 -21 12 -30 41 -11 41 5 0 20 -5 34 -11
33 -15 76 -4 76 20 0 16 -6 18 -44 14 -55 -7 -86 19 -86 71 0 42 29 66 80 66
20 0 46 -7 58 -16z"/>
<path d="M4069 4201 c-36 -36 -38 -79 -6 -108 34 -32 63 -37 97 -17 55 33 59
102 8 138 -34 24 -66 19 -99 -13z"/>
<path d="M3012 3115 c-30 -13 -52 -47 -52 -81 0 -26 56 -74 85 -74 34 0 85 50
85 84 0 28 -35 72 -65 80 -11 3 -35 -1 -53 -9z"/>
<path d="M4071 3813 c-33 -27 -38 -82 -11 -116 45 -57 143 -21 143 53 0 66
-81 104 -132 63z"/>
<path d="M2972 2670 c-31 -29 -30 -83 3 -115 48 -49 120 -22 132 48 5 31 1 42
-17 62 -30 32 -87 34 -118 5z"/>
<path d="M3159 2166 c-35 -17 -52 -60 -44 -112 18 -119 175 -111 175 10 0 25
-4 56 -9 69 -14 37 -80 55 -122 33z"/>
<path d="M3938 2172 c-38 -5 -68 -46 -68 -94 0 -44 21 -93 45 -102 31 -12 83
-6 105 12 27 22 38 98 20 142 -7 16 -13 30 -14 30 -1 0 -15 3 -31 8 -17 4 -42
6 -57 4z"/>
<path d="M3062 1603 c-31 -26 -38 -93 -13 -124 22 -27 87 -33 115 -10 17 15
24 125 8 135 -5 3 -27 8 -48 12 -30 4 -45 2 -62 -13z"/>
<path d="M3360 1535 l0 -75 43 0 c63 0 82 18 79 75 -2 63 -14 75 -73 75 l-49
0 0 -75z"/>
<path d="M4672 1598 c-16 -16 -16 -110 0 -126 7 -7 24 -12 38 -12 38 0 50 18
50 75 0 57 -12 75 -50 75 -14 0 -31 -5 -38 -12z"/>
<path d="M4950 1591 c-5 -11 -10 -36 -10 -56 0 -55 15 -75 55 -75 40 0 55 20
55 75 0 55 -15 75 -55 75 -24 0 -38 -6 -45 -19z"/>
<path d="M5242 1601 c-8 -4 -12 -19 -10 -32 3 -21 8 -24 48 -24 40 0 45 3 48
24 4 27 -12 41 -48 41 -14 0 -31 -4 -38 -9z"/>
</g>
</svg>
